<svg xmlns="http://www.w3.org/2000/svg" width="360" height="620" viewBox="0 0 360 620">
  <defs>
    <linearGradient id="body" x1="0" y1="0" x2="0" y2="1">
      <stop offset="0%" stop-color="#0a122b"/>
      <stop offset="100%" stop-color="#1a284e"/>
    </linearGradient>
    <linearGradient id="graph" x1="0" y1="0" x2="1" y2="0">
      <stop offset="0%" stop-color="#1de9b6"/>
      <stop offset="100%" stop-color="#0c7aca"/>
    </linearGradient>
  </defs>
  <rect x="0" y="0" width="360" height="620" rx="38" fill="url(#body)" />
  <rect x="20" y="26" width="320" height="40" rx="12" fill="#0c2e62" />
  <circle cx="50" cy="46" r="6" fill="#21d2ff" />
  <circle cx="80" cy="46" r="6" fill="#54f3d5" />
  <circle cx="110" cy="46" r="6" fill="#e9ea51" />
  <path d="M30 120 L330 120 L330 540 L30 540 Z" fill="rgba(0,0,0,0.2)" rx="16" />
  <polyline points="45,520 65,460 95,475 125,420 165,450 205,370 245,390 285,330 325,340" fill="none" stroke="url(#graph)" stroke-width="9" stroke-linecap="round" stroke-linejoin="round"/>
  <circle cx="325" cy="340" r="7" fill="#ffffff" />
  <text x="40" y="102" fill="#a8b8ff" font-family="Inter, Arial, sans-serif" font-size="18">EUR/USD</text>
  <text x="40" y="580" fill="#87d2ff" font-family="Inter, Arial, sans-serif" font-size="20" font-weight="700">+1.28% Today</text>
</svg>